<?xml version="1.0" encoding="UTF-8" standalone="no"?>
<svg
   viewBox="0 0 982.6772 340.1575"
   version="1.1"
   id="svg826"
   sodipodi:docname="code-solid.svg"
   inkscape:version="1.1-alpha (17bc9184, 2021-03-28)"
   width="260mm"
   height="90mm"
   xmlns:inkscape="http://www.inkscape.org/namespaces/inkscape"
   xmlns:sodipodi="http://sodipodi.sourceforge.net/DTD/sodipodi-0.dtd"
   xmlns="http://www.w3.org/2000/svg"
   xmlns:svg="http://www.w3.org/2000/svg">
  <defs
     id="defs830" />
  <sodipodi:namedview
     id="namedview828"
     pagecolor="#ffffff"
     bordercolor="#666666"
     borderopacity="1.0"
     objecttolerance="10.0"
     gridtolerance="10.0"
     guidetolerance="10.0"
     inkscape:pageshadow="2"
     inkscape:pageopacity="0.0"
     inkscape:pagecheckerboard="0"
     showgrid="false"
     inkscape:zoom="0.32017487"
     inkscape:cx="257.67169"
     inkscape:cy="566.87771"
     inkscape:window-width="1312"
     inkscape:window-height="847"
     inkscape:window-x="1502"
     inkscape:window-y="136"
     inkscape:window-maximized="0"
     inkscape:current-layer="svg826"
     width="260px"
     units="mm"
     inkscape:document-units="mm" />
  <!--! Font Awesome Pro 6.2.0 by @fontawesome - https://fontawesome.com License - https://fontawesome.com/license (Commercial License) Copyright 2022 Fonticons, Inc. -->
  <path
     d="m 517.13587,76.034629 c -6.02408,-1.735056 -12.29624,1.770464 -14.03259,7.790042 L 457.74541,242.45825 c -1.73635,6.01958 1.77179,12.28702 7.79588,14.02207 6.0241,1.73506 12.29624,-1.77045 14.0326,-7.79003 L 524.93176,90.056704 c 1.73636,-6.019578 -1.77179,-12.287021 -7.79589,-14.022075 z m 28.56129,42.526541 c -4.42948,4.42616 -4.42948,11.61425 0,16.04041 l 31.64421,31.6559 -31.67964,31.6559 c -4.42949,4.42616 -4.42949,11.61423 0,16.0404 4.42947,4.42615 11.62295,4.42615 16.05243,0 l 39.68814,-39.6584 c 4.42948,-4.42616 4.42948,-11.61424 0,-16.0404 l -39.68814,-39.65839 c -4.42948,-4.42617 -11.62296,-4.42617 -16.05243,0 z m -108.68172,0 c -4.42948,-4.42616 -11.62296,-4.42616 -16.05243,0 l -39.68814,39.6584 c -4.42949,4.42615 -4.42949,11.61424 0,16.0404 l 39.68814,39.65839 c 4.42947,4.42617 11.62295,4.42617 16.05243,0 4.42947,-4.42616 4.42947,-11.61424 0,-16.0404 l -31.67964,-31.62048 31.67964,-31.6559 c 4.42947,-4.42616 4.42947,-11.61425 0,-16.04041 z"
     id="path824"
     style="fill:#0098b4;fill-opacity:1;stroke-width:0.354225" />
</svg>
